<svg xmlns="http://www.w3.org/2000/svg" viewBox="0 0 400 300">
  <!-- Linke Hand -->
  <path d="M 20,100 Q 15,85 12,75 Q 10,65 12,55 Q 15,45 25,40 L 35,38 Q 45,38 52,45 L 65,70 L 65,160 Q 60,165 50,165 Q 40,160 20,100 Z"
    fill="#1a3a52"/>

  <!-- Rechte Hand -->
  <path d="M 380,100 Q 385,85 388,75 Q 390,65 388,55 Q 385,45 375,40 L 365,38 Q 355,38 348,45 L 335,70 L 335,160 Q 340,165 350,165 Q 360,160 380,100 Z"
    fill="#1a3a52"/>

  <!-- Medizinisches Kreuz - Äußerer Rahmen -->
  <g>
    <!-- Vertikaler Balken außen -->
    <rect x="165" y="20" width="70" height="200" rx="15"
      fill="#1a3a52"/>

    <!-- Horizontaler Balken außen -->
    <rect x="100" y="85" width="200" height="70" rx="15"
      fill="#1a3a52"/>

    <!-- Vertikaler Balken innen (weiß) -->
    <rect x="180" y="35" width="40" height="170" rx="8"
      fill="#ffffff"/>

    <!-- Horizontaler Balken innen (weiß) -->
    <rect x="115" y="100" width="170" height="40" rx="8"
      fill="#ffffff"/>
  </g>

  <!-- Weiße Akzente auf den Händen für Tiefe -->
  <path d="M 30,120 Q 28,110 27,105 Q 26,100 27,95 L 32,100 L 35,110 Z"
    fill="#ffffff" opacity="0.3"/>

  <path d="M 370,120 Q 372,110 373,105 Q 374,100 373,95 L 368,100 L 365,110 Z"
    fill="#ffffff" opacity="0.3"/>
</svg>
