<?xml version="1.0" encoding="UTF-8"?>
<svg width="80" height="80" viewBox="0 0 80 80" xmlns="http://www.w3.org/2000/svg">
  <defs>
    <linearGradient id="heartGradientIcon" x1="0%" y1="0%" x2="0%" y2="100%">
      <stop offset="0%" style="stop-color:#c99974;stop-opacity:1" />
      <stop offset="100%" style="stop-color:#b8865f;stop-opacity:1" />
    </linearGradient>
  </defs>

  <!-- Vereinfachtes großes Herz -->
  <path d="M 40 65 C 40 65, 20 50, 20 35 C 20 24, 27 17, 35 17 C 37.5 17, 40 20, 40 20 C 40 20, 42.5 17, 45 17 C 53 17, 60 24, 60 35 C 60 50, 40 65, 40 65 Z"
        fill="url(#heartGradientIcon)"
        stroke="#2b5876"
        stroke-width="3"/>

  <!-- Vereinfachte schützende Hände (als Kurven) -->
  <path d="M 15 40 Q 10 35, 12 25 Q 13 20, 18 20 Q 20 20, 22 24 L 25 32"
        fill="none"
        stroke="#2b5876"
        stroke-width="4"
        stroke-linecap="round"/>

  <path d="M 65 40 Q 70 35, 68 25 Q 67 20, 62 20 Q 60 20, 58 24 L 55 32"
        fill="none"
        stroke="#2b5876"
        stroke-width="4"
        stroke-linecap="round"/>

  <!-- Highlight auf Herz -->
  <circle cx="35" cy="28" r="3" fill="white" opacity="0.6"/>
</svg>
