<?xml version="1.0" encoding="UTF-8"?>
<svg width="80" height="80" viewBox="0 0 80 80" xmlns="http://www.w3.org/2000/svg">
  <defs>
    <linearGradient id="heartGradientIcon" x1="0%" y1="0%" x2="0%" y2="100%">
      <stop offset="0%" style="stop-color:#c99974;stop-opacity:1" />
      <stop offset="100%" style="stop-color:#b8865f;stop-opacity:1" />
    </linearGradient>
  </defs>

  <!-- Linke schützende Hand (vollständig gezeichnet) -->
  <path d="M 8 42
           Q 6 38, 7 33
           Q 7.5 28, 10 25
           Q 12 23, 15 24
           Q 16.5 24.5, 17.5 26
           L 17.8 27
           Q 17.8 25, 19 23.5
           Q 20.5 22, 22.5 22.5
           Q 24 23, 24.5 25
           L 24.8 26.5
           Q 25 24, 26.5 22.5
           Q 28 21, 30 22
           Q 31.5 23, 31.5 25.5
           L 31 30
           Q 30.5 34, 28 38
           Q 26 42, 22 44
           Q 18 45, 14 43
           Q 10 41, 8 42 Z"
        fill="#2b5876"/>

  <!-- Rechte schützende Hand (gespiegelt, vollständig gezeichnet) -->
  <path d="M 72 42
           Q 74 38, 73 33
           Q 72.5 28, 70 25
           Q 68 23, 65 24
           Q 63.5 24.5, 62.5 26
           L 62.2 27
           Q 62.2 25, 61 23.5
           Q 59.5 22, 57.5 22.5
           Q 56 23, 55.5 25
           L 55.2 26.5
           Q 55 24, 53.5 22.5
           Q 52 21, 50 22
           Q 48.5 23, 48.5 25.5
           L 49 30
           Q 49.5 34, 52 38
           Q 54 42, 58 44
           Q 62 45, 66 43
           Q 70 41, 72 42 Z"
        fill="#2b5876"/>

  <!-- Schön geformtes Herz mit natürlichen Kurven -->
  <path d="M 40 68
           C 40 68, 18 52, 18 36
           C 18 26, 23 19, 30 19
           C 34 19, 37 21, 40 25
           C 43 21, 46 19, 50 19
           C 57 19, 62 26, 62 36
           C 62 52, 40 68, 40 68 Z"
        fill="url(#heartGradientIcon)"
        stroke="#a06f4a"
        stroke-width="2.5"/>

  <!-- Highlight auf Herz für Glanz -->
  <ellipse cx="33" cy="28" rx="4" ry="5" fill="white" opacity="0.5" transform="rotate(-20 33 28)"/>
</svg>
