<?xml version="1.0" encoding="UTF-8"?>
<svg width="200" height="200" viewBox="0 0 200 200" xmlns="http://www.w3.org/2000/svg">
  <defs>
    <linearGradient id="heartGradient" x1="0%" y1="0%" x2="0%" y2="100%">
      <stop offset="0%" style="stop-color:#c99974;stop-opacity:1" />
      <stop offset="100%" style="stop-color:#b8865f;stop-opacity:1" />
    </linearGradient>
    <linearGradient id="handsGradient" x1="0%" y1="0%" x2="0%" y2="100%">
      <stop offset="0%" style="stop-color:#3d7096;stop-opacity:1" />
      <stop offset="100%" style="stop-color:#2b5876;stop-opacity:1" />
    </linearGradient>
  </defs>

  <!-- Hintergrund-Kreis (optional, f端r Kontrast) -->
  <circle cx="100" cy="100" r="95" fill="#faf8f5" opacity="0.3"/>

  <!-- Linke sch端tzende Hand -->
  <path d="M 45 110 Q 40 100, 42 85 Q 43 75, 48 70 Q 52 66, 58 68 Q 62 70, 63 75 Q 64 65, 68 62 Q 72 59, 77 62 Q 81 65, 82 72 Q 83 62, 88 60 Q 93 58, 97 62 Q 100 65, 100 73 L 100 95 Q 98 105, 90 115 Q 82 125, 70 125 Q 58 125, 50 118 Q 45 115, 45 110 Z"
        fill="url(#handsGradient)"
        opacity="0.9"/>

  <!-- Rechte sch端tzende Hand (gespiegelt) -->
  <path d="M 155 110 Q 160 100, 158 85 Q 157 75, 152 70 Q 148 66, 142 68 Q 138 70, 137 75 Q 136 65, 132 62 Q 128 59, 123 62 Q 119 65, 118 72 Q 117 62, 112 60 Q 107 58, 103 62 Q 100 65, 100 73 L 100 95 Q 102 105, 110 115 Q 118 125, 130 125 Q 142 125, 150 118 Q 155 115, 155 110 Z"
        fill="url(#handsGradient)"
        opacity="0.9"/>

  <!-- Herz in der Mitte -->
  <path d="M 100 140 C 100 140, 75 120, 75 100 C 75 85, 85 75, 95 75 C 100 75, 100 80, 100 80 C 100 80, 100 75, 105 75 C 115 75, 125 85, 125 100 C 125 120, 100 140, 100 140 Z"
        fill="url(#heartGradient)"
        stroke="#a06f4a"
        stroke-width="2"/>

  <!-- Subtile Highlights f端r Tiefe -->
  <circle cx="95" cy="85" r="3" fill="white" opacity="0.4"/>
  <circle cx="78" cy="95" r="2" fill="white" opacity="0.3"/>
  <circle cx="122" cy="95" r="2" fill="white" opacity="0.3"/>

  <!-- Text "DV" als Monogramm (optional, kann entfernt werden) -->
  <text x="100" y="175"
        font-family="Poppins, sans-serif"
        font-size="22"
        font-weight="700"
        fill="#2b5876"
        text-anchor="middle">DigniVita</text>
</svg>
