<?xml version="1.0" encoding="UTF-8"?>
<svg width="32" height="32" viewBox="0 0 32 32" xmlns="http://www.w3.org/2000/svg">
  <defs>
    <linearGradient id="heartGradientFav" x1="0%" y1="0%" x2="0%" y2="100%">
      <stop offset="0%" style="stop-color:#c99974;stop-opacity:1" />
      <stop offset="100%" style="stop-color:#b8865f;stop-opacity:1" />
    </linearGradient>
  </defs>

  <!-- Weißer Hintergrund für bessere Sichtbarkeit in Tabs -->
  <rect width="32" height="32" fill="#faf8f5" rx="4"/>

  <!-- Vereinfachtes Herz mit Händen (nur Silhouette für kleine Größe) -->
  <path d="M 16 24 C 16 24, 12 20, 12 16 C 12 13.5, 13.5 12, 15 12 C 16 12, 16 13, 16 13 C 16 13, 16 12, 17 12 C 18.5 12, 20 13.5, 20 16 C 20 20, 16 24, 16 24 Z"
        fill="url(#heartGradientFav)"/>

  <!-- Stilisierte Hände als Akzent -->
  <path d="M 10 16 Q 9 14, 10 12 L 12 14 Z" fill="#2b5876" opacity="0.8"/>
  <path d="M 22 16 Q 23 14, 22 12 L 20 14 Z" fill="#2b5876" opacity="0.8"/>
</svg>
